<!-- // SPDX-License-Identifier: MIT -->
<!-- // Copyright © 2025 TON Studio -->
<svg width="16" height="16" viewBox="0 0 16 16" fill="none" xmlns="http://www.w3.org/2000/svg">
<path d="M12.375 1.75H3.625C2.58947 1.75 1.75 2.58947 1.75 3.625V12.375C1.75 13.4105 2.58947 14.25 3.625 14.25H12.375C13.4105 14.25 14.25 13.4105 14.25 12.375V3.625C14.25 2.58947 13.4105 1.75 12.375 1.75Z" fill="black"/>
<path d="M11.4327 4.27018L8.85749 7.11203L11.8084 8.38037L4.90905 12.1508C4.72371 12.0104 4.54818 11.8577 4.38377 11.6938L6.99283 8.81453L4.19189 7.69618L10.901 3.84912C11.2233 4.07337 11.2233 4.07337 11.4327 4.27018Z" fill="white"/>
<circle cx="11.8086" cy="11.8628" r="1.32422" fill="white"/>
</svg>
