<!-- // SPDX-License-Identifier: MIT -->
<!-- // Copyright © 2025 TON Studio -->
<svg width="16" height="16" viewBox="0 0 16 16" fill="none" xmlns="http://www.w3.org/2000/svg">
<path d="M12 2.00049C13.1046 2.00049 14 2.89592 14 4.00049V12.0005C13.9997 13.1048 13.1044 14.0005 12 14.0005H4C2.89559 14.0005 2.00026 13.1048 2 12.0005V4.00049C2 2.89592 2.89543 2.00049 4 2.00049H12ZM3.61035 9.0542V9.73975H4.6709V12.5454H5.50195V9.73975H6.56055V9.0542H3.61035ZM6.97363 12.5454H9.26953V11.8599H7.81738V9.0542H6.97363V12.5454ZM9.70605 12.5454H11.2725C11.5304 12.5454 11.75 12.5035 11.9307 12.4194C12.1113 12.3342 12.2493 12.2174 12.3447 12.0708C12.44 11.9233 12.4882 11.756 12.4883 11.5688C12.4883 11.4008 12.4515 11.255 12.3789 11.1323C12.3062 11.0085 12.2093 10.9116 12.0889 10.8423C11.9696 10.773 11.8391 10.7348 11.6982 10.728V10.6938C11.8266 10.6666 11.9404 10.6194 12.0381 10.5513C12.1357 10.4831 12.2119 10.3968 12.2676 10.2935C12.3233 10.1889 12.3516 10.07 12.3516 9.93701C12.3515 9.76207 12.3065 9.60802 12.2168 9.4751C12.1282 9.34224 11.9955 9.23839 11.8184 9.16455C11.6423 9.09072 11.4233 9.05423 11.1621 9.0542H9.70605V12.5454ZM11.0869 11.0327C11.1946 11.0327 11.2871 11.0512 11.3643 11.0874C11.4415 11.1226 11.5019 11.1738 11.5439 11.2397C11.5858 11.3044 11.6064 11.3816 11.6064 11.4712C11.6064 11.595 11.5631 11.6919 11.4756 11.7612C11.3892 11.8305 11.2542 11.8647 11.0713 11.8647H10.5498V11.0327H11.0869ZM11.0303 9.72412C11.1712 9.72412 11.2833 9.75767 11.3662 9.82471C11.4492 9.89175 11.4902 9.98403 11.4902 10.1011C11.4902 10.1826 11.4704 10.2523 11.4297 10.3101C11.3899 10.368 11.3342 10.4132 11.2627 10.4438C11.1911 10.4745 11.1086 10.4897 11.0166 10.4897H10.5498V9.72412H11.0303Z" fill="#E2CD33"/>
</svg>
